<svg xmlns="http://www.w3.org/2000/svg" version="1.1" xmlns:xlink="http://www.w3.org/1999/xlink" xmlns:svgjs="http://svgjs.dev/svgjs" width="512" height="512"><svg width="512" height="512" viewBox="0 0 135.46667 135.46666" version="1.1" id="SvgjsSvg1034" xml:space="preserve" inkscape:version="1.4 (86a8ad7, 2024-10-11)" sodipodi:docname="favicon-chicken-nothing.svg" xmlns:inkscape="http://www.inkscape.org/namespaces/inkscape" xmlns:sodipodi="http://sodipodi.sourceforge.net/DTD/sodipodi-0.dtd" xmlns="http://www.w3.org/2000/svg" xmlns:svg="http://www.w3.org/2000/svg"><sodipodi:namedview id="SvgjsSodipodi:namedview1033" pagecolor="#505050" bordercolor="#ffffff" borderopacity="1" inkscape:showpageshadow="0" inkscape:pageopacity="0" inkscape:pagecheckerboard="1" inkscape:deskcolor="#d1d1d1" inkscape:document-units="mm" inkscape:zoom="1.6151358" inkscape:cx="183.57589" inkscape:cy="245.18062" inkscape:window-width="2560" inkscape:window-height="1334" inkscape:window-x="-11" inkscape:window-y="-11" inkscape:window-maximized="1" inkscape:current-layer="svg1" showgrid="false"></sodipodi:namedview><defs id="SvgjsDefs1032"></defs><g inkscape:groupmode="layer" id="SvgjsG1031" inkscape:label="Ebene 2"><path style="opacity:0.79;fill:none;stroke:#ffffff;stroke-width:1.10856;stroke-dasharray:none;stroke-opacity:1" d="m 80.287256,93.568525 c 0,0 12.751522,-4.328257 17.886206,-12.992402 1.276694,-2.154281 3.301858,-7.001737 3.499288,-7.819639 0.43251,-1.791844 1.89693,-7.122928 0.19662,-4.878864 -0.89825,1.185514 0.0578,-3.646609 0.88402,-5.213492 1.99386,-3.781407 0.891,-4.352492 -0.0532,-2.977899 -1.24573,1.813617 0.80346,-8.909922 -0.17562,-6.337158 -0.76729,2.016234 -1.77506,-9.353668 -2.596127,-6.51804 -0.42672,1.473758 -1.413924,0.20682 -3.653952,-2.975721 -1.669601,-2.372105 -4.43674,-4.698739 -5.191838,-5.331392 -1.768188,-1.481454 -3.27997,-4.039801 -3.614496,-4.661056 -0.334519,-0.621255 -1.876355,-4.140235 0.369721,-5.334957 2.246076,-1.19472 3.185673,0.671234 3.185673,0.671234 0.777204,0.912378 0.642041,2.027508 -1.115129,2.331634 -1.757184,0.304126 -2.635769,-1.385464 -1.790967,-2.838511 0.84479,-1.453048 3.244014,-2.061302 4.223974,-0.608254 0.979959,1.453049 7.231444,5.068773 8.177611,5.001189 0.94617,-0.06758 2.36542,-0.608253 -0.608247,-2.02751 -2.973677,-1.419255 -3.919847,0.54067 -4.730847,1.554425 -0.811007,1.013754 2.669544,9.225164 -1.959932,7.332823 -4.629477,-1.892342 -2.433007,-5.102564 -0.202749,-7.738325 2.230259,-2.635762 4.359144,-2.703345 5.068776,-6.927321 0.709628,-4.223978 -1.453054,-5.879776 -4.325354,-4.494312 -2.872306,1.385465 -2.568183,2.264052 -2.399218,3.345389 0.168959,1.081339 2.669552,0.70963 1.723375,-2.0613 -0.946164,-2.770928 -3.311592,-3.210222 -4.730851,-3.210222 -1.419252,0 -4.021225,0.844796 -4.223979,3.108847 -0.202749,2.26405 1.317884,3.142639 1.622013,3.412973 0.304123,0.270334 1.047544,0.202751 1.622007,-0.304126 0.574456,-0.506878 -3.717102,-2.466803 -7.265239,2.162675 -0.382835,0.499507 -1.349216,5.29117 -1.307872,1.768491 0.03754,-3.195281 -1.95979,6.81856 -2.052237,4.707121 -0.226687,-5.177031 -0.47174,1.383846 -0.766483,2.310537 -0.26576,0.835529 0.340467,5.600446 -0.941416,2.987968 -0.455988,-0.929274 -0.667348,2.110619 -1.082128,3.398406 C 70.410529,53.427868 68.045094,53.934745 55.102831,57.75322 42.160566,61.571694 29.556222,45.959875 25.97429,38.593261 c -1.861911,-3.829211 -3.9684,-4.213492 -5.010683,-1.206649 -0.194455,0.560973 1.670009,5.449109 -0.231761,3.154392 -0.876991,-1.058197 1.581267,8.221549 -0.502729,4.846133 -0.895163,-1.449882 0.364511,3.234888 0.777776,4.999467 2.128885,9.089997 6.784288,11.282861 8.719735,12.262531 1.93545,0.979671 6.905487,2.293864 8.64978,1.624818 1.744293,-0.66904 2.723964,-1.815972 -2.65228,-4.444358 -5.376245,-2.628387 -11.756054,-1.744292 -12.568465,-0.955777 -0.81241,0.788514 -3.297692,1.498266 -0.239533,7.699066 3.05816,6.200804 10.048193,9.887233 11.326544,10.329286 1.278351,0.442041 2.496966,0.860194 1.792081,-0.346472 -0.704885,-1.206672 -2.341653,-1.577032 -3.59611,-1.636766 -1.254457,-0.05973 -1.421718,1.469503 -1.421718,1.469503 0,0 -1.967583,12.622217 10.062302,22.624598 12.029884,10.002377 27.03345,1.216507 27.03345,1.216507 0,0 12.570565,-3.919854 20.680593,-14.598065 C 96.903313,74.953263 95.821967,71.574079 95.68681,69.546569 95.55164,67.519052 93.456545,56.84084 76.155142,58.598014 58.853722,60.355188 50.676103,69.34382 50.676103,69.34382 c 0,0 -7.569365,8.447953 4.190185,10.880961 11.759541,2.433013 14.93599,1.08134 20.680602,-1.216504 5.744606,-2.297844 8.245198,-8.98862 8.245198,-8.98862 0,0 1.89234,-10.880974 -11.421633,-12.840898 -13.313983,-1.959925 -22.476937,7.573085 -22.476937,7.573085 0,0 -10.131234,9.605572 -8.21968,21.69614 1.911553,12.09058 9.526206,17.112716 9.526206,17.112716 0,0 19.075315,9.94903 26.036431,-1.81052 6.96111,-11.759562 0.242047,-12.587844 0.242047,-12.587844 0,0 -11.528529,-3.463277 -14.164298,10.560327 -2.635748,14.023607 19.159986,26.864497 14.665667,19.970967 -4.494307,-6.89353 -15.104963,0.57446 -15.104963,0.57446 0,0 -2.85018,1.87817 1.25965,1.11355 4.109859,-0.76462 4.731115,-2.19829 5.686891,-3.10627 0.955782,-0.90799 2.150494,-1.09915 0,0 -2.150508,1.09914 -1.173142,8.68782 0.525681,4.15763 0.573469,-1.52924 1.06822,-3.42609 1.020426,-4.85976 -0.0478,-1.43366 -3.657329,-2.7782 -5.712262,-6.88804 -0.936778,-1.87355 -2.958663,-7.8405 -2.91757,-8.88642 0.05292,-1.34718 0.350541,-5.141351 -0.617099,-3.921687 -2.040347,2.571727 4.127478,-5.05786 1.418028,-3.103612 -2.416095,1.742682 4.615782,-3.944705 5.340761,-4.509621 3.679745,-2.867326 12.57059,-1.848416 11.407796,3.304665" id="SvgjsPath1030" sodipodi:nodetypes="csssssssscscscsscssscscsssssssssssssssssssssssssssssssssssscscscsscsssssssssscc"></path></g></svg><style>@media (prefers-color-scheme: light) { :root { filter: contrast(1) brightness(0.1); } }
@media (prefers-color-scheme: dark) { :root { filter: none; } }
</style></svg>