<?xml version="1.0" encoding="UTF-8" standalone="no"?>
<!-- Created with Inkscape (http://www.inkscape.org/) -->

<svg
   width="210mm"
   height="210mm"
   viewBox="0 0 210 210"
   version="1.1"
   id="svg1"
   xml:space="preserve"
   inkscape:version="1.4 (86a8ad7, 2024-10-11)"
   sodipodi:docname="chicken-path.svg"
   xmlns:inkscape="http://www.inkscape.org/namespaces/inkscape"
   xmlns:sodipodi="http://sodipodi.sourceforge.net/DTD/sodipodi-0.dtd"
   xmlns="http://www.w3.org/2000/svg"
   xmlns:svg="http://www.w3.org/2000/svg"><sodipodi:namedview
     id="namedview1"
     pagecolor="#505050"
     bordercolor="#ffffff"
     borderopacity="1"
     inkscape:showpageshadow="0"
     inkscape:pageopacity="0"
     inkscape:pagecheckerboard="1"
     inkscape:deskcolor="#d1d1d1"
     inkscape:document-units="mm"
     inkscape:zoom="1.1420735"
     inkscape:cx="151.04107"
     inkscape:cy="494.27642"
     inkscape:window-width="2560"
     inkscape:window-height="1334"
     inkscape:window-x="-11"
     inkscape:window-y="-11"
     inkscape:window-maximized="1"
     inkscape:current-layer="layer2"
     showgrid="false" /><defs
     id="defs1" /><g
     inkscape:groupmode="layer"
     id="layer2"
     inkscape:label="Ebene 2"><path
       style="opacity:0.79;fill:none;stroke:#ffffff;stroke-width:1.9;stroke-dasharray:none;stroke-opacity:1"
       d="m 135.31112,141.92182 c 0,0 21.85541,-7.41839 30.65598,-22.26826 2.1882,-3.69232 5.65922,-12.00059 5.9976,-13.40243 0.74131,-3.07113 3.25123,-12.208254 0.337,-8.362088 -1.53955,2.031881 0.0991,-6.250044 1.51517,-8.935592 3.41736,-6.481126 1.52712,-7.459933 -0.0912,-5.103957 -2.13513,3.108441 1.37707,-15.271118 -0.30102,-10.861541 -1.31509,3.455715 -3.04235,-16.031676 -4.44961,-11.171565 -0.73139,2.52594 -2.42341,0.354478 -6.26269,-5.100222 -2.86161,-4.065658 -7.60433,-8.053382 -8.89853,-9.137715 -3.03058,-2.539131 -5.62169,-6.923997 -6.19505,-7.988794 -0.57335,-1.064797 -3.21597,-7.096138 0.63368,-9.143824 3.84965,-2.047686 5.46007,1.150457 5.46007,1.150457 1.33209,1.563767 1.10042,3.475038 -1.91127,3.996293 -3.01172,0.521256 -4.51756,-2.374609 -3.06962,-4.865052 1.44793,-2.490446 5.56006,-3.532958 7.23966,-1.042514 1.6796,2.490446 12.39431,8.687599 14.01599,8.571764 1.62169,-0.115834 4.05421,-1.042511 -1.04251,-3.47504 -5.09672,-2.432526 -6.71841,0.926677 -8.10842,2.664198 -1.39002,1.737519 4.57546,15.811426 -3.35921,12.568058 -7.93467,-3.243371 -4.17004,-8.745517 -0.3475,-13.263065 3.82254,-4.517552 7.47133,-4.633386 8.6876,-11.87305 1.21626,-7.239667 -2.49045,-10.077614 -7.41342,-7.703005 -4.92297,2.374611 -4.40172,3.880461 -4.11213,5.733814 0.28959,1.853356 4.57547,1.216266 2.95378,-3.532955 -1.62168,-4.74922 -5.67589,-5.502145 -8.10842,-5.502145 -2.43253,0 -6.89216,1.447933 -7.23967,5.328394 -0.3475,3.880458 2.25878,5.38631 2.78004,5.849649 0.52125,0.463338 1.79543,0.347503 2.78003,-0.521256 0.98459,-0.868762 -6.37091,-4.227966 -12.45222,3.706706 -0.65616,0.856129 -2.31249,9.068776 -2.24162,3.031098 0.0643,-5.476537 -3.35898,11.686639 -3.51743,8.067748 -0.38852,-8.873148 -0.80853,2.371835 -1.31371,3.960133 -0.45549,1.432051 0.58355,9.598859 -1.61353,5.121213 -0.78151,-1.592725 -1.14376,3.617486 -1.85467,5.824683 -6.08132,18.881047 -10.13553,19.749807 -32.31786,26.294463 -22.182333,6.544657 -43.78549,-20.213146 -49.924726,-32.83912 -3.191213,-6.56306 -6.801619,-7.221695 -8.588036,-2.068131 -0.333285,0.961478 2.862305,9.339474 -0.397225,5.406455 -1.503115,-1.813691 2.710205,14.091286 -0.861651,8.306006 -1.534259,-2.485016 0.624752,5.544422 1.333067,8.568815 3.648791,15.579757 11.627898,19.338205 14.945148,21.017307 3.317254,1.679101 11.835628,3.931549 14.82525,2.784845 2.989622,-1.146694 4.668724,-3.112473 -4.545864,-7.617383 -9.214589,-4.504912 -20.149233,-2.989622 -21.541661,-1.638149 -1.392425,1.35147 -5.652063,2.567945 -0.410546,13.195751 5.241518,10.627793 17.222052,16.946133 19.413077,17.703783 2.191023,0.75764 4.279664,1.47433 3.071529,-0.59383 -1.208135,-2.06817 -4.013467,-2.70295 -6.163537,-2.80533 -2.15007,-0.10239 -2.436746,2.51865 -2.436746,2.51865 0,0 -3.372329,21.63379 17.246234,38.77732 20.618564,17.14352 46.333857,2.08502 46.333857,2.08502 0,0 21.54524,-6.7184 35.44539,-25.02028 13.90016,-18.30187 12.0468,-24.0936 11.81514,-27.56864 -0.23167,-3.475022 -3.82255,-21.776858 -33.47621,-18.765157 -29.653668,3.011699 -43.669658,18.417657 -43.669658,18.417657 0,0 -12.973479,14.47932 7.181747,18.64937 20.155221,4.17005 25.599451,1.85335 35.445401,-2.08502 9.84594,-3.93838 14.13182,-15.40601 14.13182,-15.40601 0,0 3.24337,-18.64932 -19.57605,-22.008523 -22.819425,-3.359205 -38.524226,12.979848 -38.524226,12.979848 0,0 -17.364382,16.463355 -14.088083,37.185935 3.276298,20.72259 16.327396,29.33023 16.327396,29.33023 0,0 32.694033,17.0521 44.625003,-3.10313 11.93096,-20.15522 0.41486,-21.57485 0.41486,-21.57485 0,0 -19.75924,-5.93587 -24.27679,18.09981 -4.51755,24.03569 32.83912,46.04427 25.13611,34.22914 -7.703,-11.81514 -25.88904,0.98459 -25.88904,0.98459 0,0 -4.88508,3.21908 2.15897,1.90856 7.04404,-1.31052 8.10883,-3.76774 9.74698,-5.32398 1.63815,-1.55624 3.68583,-1.88387 0,0 -3.68584,1.88387 -2.0107,14.89045 0.90099,7.12595 0.98289,-2.62104 1.83086,-5.87213 1.74895,-8.32935 -0.0819,-2.45722 -6.26845,-4.76169 -9.79047,-11.80573 -1.60558,-3.21117 -5.07098,-13.43819 -5.00055,-15.23082 0.0907,-2.30898 0.60082,-8.81199 -1.05768,-6.72156 -3.49706,4.4078 7.07427,-8.66889 2.43044,-5.31942 -4.14108,2.98686 7.91116,-6.76101 9.15372,-7.72924 6.30688,-4.91444 21.5453,-3.16808 19.55234,5.66401"
       id="path1"
       sodipodi:nodetypes="csssssssscscscsscssscscsssssssssssssssssssssssssssssssssssscscscsscsssssssssscc" /></g></svg>
